# xmcd
#
# Track frame offsets:
#   150
#   20982
#   36442
#   61971
#   92163
#   111648
#   131895
#   154618
#   172306
#   189075
#   207251
#   228789
#   255975
#   286125
#   302073
#   315227
#
# Disc length: 4357 seconds
#
# Revision: 0
# Processed by: cddbd v1.5.1PL0 Copyright (c) Steve Scherf et al.
# Submitted via: Media_Universe 3.0
#
DISCID=df110310
DTITLE=John Lee Hooker - The Best of Friends
DYEAR=1900
DGENRE=Blues
TTITLE0=01 - Boogie Chillen
TTITLE1=02 - This Is Hip
TTITLE2=03 - The Healer
TTITLE3=04 - I Cover the Waterfront
TTITLE4=05 - Boom Boom
TTITLE5=06 - I'm in the Mood
TTITLE6=07 - Burning Hell
TTITLE7=08 - Tupelo
TTITLE8=09 - Baby Lee
TTITLE9=10 - Dimples
TTITLE10=11 - Chill Out (Things Gonna Change)
TTITLE11=12 - Big Legs, Tight Skirt
TTITLE12=13 - Don't Look Back
TTITLE13=15 - Track 15
TTITLE14=16 - Track 16
TTITLE15=17 - Track 17
EXTD=
EXTT0=
EXTT1=
EXTT2=
EXTT3=
EXTT4=
EXTT5=
EXTT6=
EXTT7=
EXTT8=
EXTT9=
EXTT10=
EXTT11=
EXTT12=
EXTT13=
EXTT14=
EXTT15=
PLAYORDER=
